<svg width="26" height="22" viewBox="0 0 26 22" fill="none" xmlns="http://www.w3.org/2000/svg">
<g clip-path="url(#clip0_3_175)">
<path fill-rule="evenodd" clip-rule="evenodd" d="M12.844 0C5.74158 0 0 4.95763 0 11.0909C0 15.9936 3.67883 20.1435 8.78234 21.6124C9.42041 21.7228 9.65413 21.3737 9.65413 21.0801C9.65413 20.823 9.6331 19.9416 9.6331 19.0233C6.06022 19.6845 5.3162 17.7012 5.3162 17.7012C4.74201 16.4159 3.89125 16.0855 3.89125 16.0855C2.72185 15.4061 3.97644 15.4061 3.97644 15.4061C5.27361 15.4795 5.95427 16.5445 5.95427 16.5445C7.10237 18.2337 8.95243 17.7564 9.69672 17.4626C9.80293 16.7464 10.1434 16.2507 10.5049 15.9753C7.65526 15.7182 4.6571 14.7634 4.6571 10.5032C4.6571 9.29128 5.16713 8.29976 5.9753 7.52862C5.84779 7.25324 5.40112 6.11456 6.10307 4.59054C6.10307 4.59054 7.18755 4.29669 9.63283 5.729C10.6797 5.48622 11.7594 5.36272 12.844 5.36168C13.9284 5.36168 15.0339 5.49035 16.0548 5.729C18.5003 4.29669 19.5848 4.59054 19.5848 4.59054C20.2868 6.11456 19.8398 7.25324 19.7123 7.52862C20.5418 8.29976 21.0308 9.29128 21.0308 10.5032C21.0308 14.7634 18.0326 15.6997 15.1617 15.9753C15.6297 16.3241 16.0335 16.9851 16.0335 18.0318C16.0335 19.5191 16.0125 20.7128 16.0125 21.0799C16.0125 21.3737 16.2465 21.7228 16.8843 21.6126C21.9878 20.1433 25.6666 15.9936 25.6666 11.0909C25.6876 4.95763 19.925 0 12.844 0Z" fill="white"/>
</g>
<defs>
<clipPath id="clip0_3_175">
<rect width="25.6667" height="22" fill="white"/>
</clipPath>
</defs>
</svg>
